<svg id="圖層_1" data-name="圖層 1" xmlns="http://www.w3.org/2000/svg" viewBox="0 0 65 65"><defs><style>.cls-1{fill:#e73616;}.cls-2{fill:#0c374d;}</style></defs><path class="cls-1" d="M40.75,23.33Q34.9,15.91,28.42,9a.84.84,0,0,0-1.18.12c-.42.55-1.1,5.89-1.41,6.48-.14-.78,0-6.33-.19-7.1-.41-1.54-.84-3-2.28-3.81-1.77-1-3.66-1.89-5.49-2.83A12.25,12.25,0,0,0,13.24.22a.7.7,0,0,0-.57.21.76.76,0,0,0-.19.12,1,1,0,0,0-.61.72,2.28,2.28,0,0,0-.46.76c-.65,1.74-.26,4.29-.1,6.09A39,39,0,0,0,14.63,20.7a81.66,81.66,0,0,0,6.94,11.84,136.64,136.64,0,0,0,9.87,14.89,18.35,18.35,0,0,0,1.17,1.75A4.13,4.13,0,0,0,35,50.88c2.31.52,5.16-.71,7.17-1.73a20.8,20.8,0,0,0,6.15-4.76c1.12-1.28,2.63-3,2.7-4.83A.81.81,0,0,0,51,39a4.36,4.36,0,0,0-.11-.52C50.82,38.32,44.43,28,40.75,23.33Z"/><path class="cls-2" d="M40,25.81c0-.49-.76-.42-.76.06q0,5.72-.49,11.4L35.6,33l-2-2.68a.31.31,0,0,0,0-.17,7.7,7.7,0,0,0-.31-1.89c-.13-.64-.26-1.27-.38-1.91-.25-1.23-.49-2.46-.74-3.68l-.75-3.69c-.25-1.28-.59-2.53-.86-3.81-.09-.43-.78-.38-.69.06.24,1.28.4,2.56.65,3.83s.48,2.46.73,3.69l.72,3.68c.12.62.25,1.23.37,1.84l.1.53L27.58,22,19.52,11l-1-1.36a.43.43,0,0,0-.7.49l9.94,13.59a49.34,49.34,0,0,1-4.56-2.38,36.47,36.47,0,0,0-5.79-2.91c-.48-.17-.82.53-.34.74a52.3,52.3,0,0,1,5.77,3A38.66,38.66,0,0,0,28.64,25l.08,0,5,6.9.26.35-6.28-2.18-3.61-1.25c-1.21-.42-2.42-.87-3.66-1.22-.44-.12-.65.59-.23.76,1.19.5,2.43.9,3.65,1.32L27.44,31l7.22,2.5a.37.37,0,0,0,.23,0l6.31,8.63c-2-.76-4-1.49-6.07-2.17-2.34-.78-4.7-1.56-7.08-2.19-.45-.12-.7.64-.24.79,2.33.77,4.67,1.48,7,2.27s4.63,1.62,6.93,2.49a.47.47,0,0,0,.35,0c2.33,3.17,4.75,6.3,6.87,9.61,2.22,3.47,4,7.32,4.18,11.51,0,.54.83.46.82-.07a21.42,21.42,0,0,0-3.36-10.46c-2.06-3.49-4.59-6.71-7-10q-2-2.77-4.07-5.57a.38.38,0,0,0,0-.16A104.29,104.29,0,0,0,40,25.81Z"/></svg>