<svg id="圖層_1" data-name="圖層 1" xmlns="http://www.w3.org/2000/svg" viewBox="0 0 65 65"><defs><style>.cls-1{fill:#3da982;}.cls-2{fill:#0c374d;}</style></defs><path class="cls-1" d="M61.84,30.89c-.36-7.83-2-16.44-6.17-23.2A1.35,1.35,0,0,0,54.53,7a1.19,1.19,0,0,0-.75.16l-1,.56a1.51,1.51,0,0,0-.46.26C38.4,15.87,25.1,25,10.77,32.24a1,1,0,0,0-.45.16l-.65.38c-1.32.65-2.65,1.3-4,1.91a1.71,1.71,0,0,0-.35.21,4.47,4.47,0,0,0-1.71,1c-1.53,1.68-.12,3.61,1,5,3.71,4.47,7.57,9.34,12.59,12.39A23,23,0,0,0,21,55.1c5.37,2.86,12.37,3.49,18.19,2.81,6.4-.75,12.94-3.46,17.26-8.38C60.93,44.4,62.15,37.53,61.84,30.89Z"/><path class="cls-2" d="M55.83,7.54a1.33,1.33,0,0,0-1.14-.69A1.15,1.15,0,0,0,54,7c.79,6,3.08,31.27-13.21,41.37-15.49,9.6-31.9-7-36.85-12.73l-.15.13c-1.53,1.68-.12,3.61,1,5,3.71,4.46,7.57,9.33,12.59,12.38A23,23,0,0,0,21.13,55c5.37,2.86,12.37,3.49,18.19,2.81,6.4-.75,12.94-3.47,17.26-8.39,4.51-5.13,5.73-12,5.42-18.64C61.64,22.92,60,14.3,55.83,7.54Z"/><path class="cls-2" d="M48.58,19.71a4.56,4.56,0,0,0-.72-2.82,1.29,1.29,0,0,0-2.21.37c-1,1.91-1.13,4.25-1.37,6.36-.32,2.73-.63,5.47-.94,8.2a.81.81,0,0,0,1.13.76.54.54,0,0,0,.64-.31A26.8,26.8,0,0,0,48.58,19.71Z"/><path class="cls-2" d="M39.15,33.81c-.51-2.12-1.08-4.23-1.76-6.3-.34-1-.69-2-1.07-3a7.06,7.06,0,0,0-1.21-2.2,3.11,3.11,0,0,0-2-1.14c-1-.07-1.46.75-1.51,1.66-.11,2,1,4,2,5.66a33.26,33.26,0,0,0,1.84,2.87A12,12,0,0,0,37.59,34a.51.51,0,0,0,.16.09h0A.72.72,0,0,0,39.15,33.81Z"/><path class="cls-2" d="M30.13,38.45,30,38.16a.93.93,0,0,0,0-.57c-1.22-3.14-2.4-6.88-5.24-9-.64-.47-1.54-1.06-2.35-.67a1.75,1.75,0,0,0-.58,2.35A19,19,0,0,0,24.59,35a39,39,0,0,0,4.19,4.43C29.44,40,30.61,39.32,30.13,38.45Z"/><path class="cls-2" d="M24.46,42.85c-2.38-3.14-4.83-6.35-8.61-7.85-.78-.31-1.8-.65-2.52,0a2.12,2.12,0,0,0-.14,2.43c.71,1.64,2.5,2.7,3.91,3.67a55.69,55.69,0,0,0,6.07,3.64c.69.35,1.54-.33,1.28-1A.71.71,0,0,0,24.46,42.85Z"/></svg>