<svg id="圖層_1" data-name="圖層 1" xmlns="http://www.w3.org/2000/svg" viewBox="0 0 65 65"><defs><style>.cls-1{fill:#3da982;}.cls-2{fill:#0c374d;}</style></defs><path class="cls-1" d="M13.82,53.18C17,49.32,20,45.93,22.89,43l.43-.19a9.07,9.07,0,0,1,4-.7,7,7,0,0,1,2.48.76c.82.34,1.58.84,2.33,1.24A14,14,0,0,0,39,46,15,15,0,0,0,50.79,39.3a13,13,0,0,0,2.52-6.5c.08-2.31-1.52-3.17-3.54-2.44-2.43.88-4.62,2.88-6.89,4.36a9.41,9.41,0,0,1-3.94,1.65,33.33,33.33,0,0,1-3.75-.08,14.42,14.42,0,0,0-8.78,3.24,111.86,111.86,0,0,1,9.12-7.79L37,30.68a14.9,14.9,0,0,0,3.17-2.23c.69-.46,1.33-.88,1.95-1.26a49.12,49.12,0,0,0,7.53-3.44A11.12,11.12,0,0,0,57,19c1.87-2.74,2.71-6.88.7-8.74-1.38-1.28-3.67-.72-5.53.67a5.86,5.86,0,0,0-1.82,1.27l-.24.25A8,8,0,0,0,48,14.83c-1.28,1.9-2.36,3.88-3.75,5.7A66.14,66.14,0,0,1,39.53,26a22.39,22.39,0,0,0-3,3.74l-1.38,1c-1.51,1.15-3.18,2.49-5,4l.15-.3A18.48,18.48,0,0,0,35,22.7c0-1.41-.12-2.78,0-4.22a12.3,12.3,0,0,1,1.59-4.4c1.38-2.5,3.23-4.9,4.08-7.61.71-2.26,0-4.09-2-4.07A10.24,10.24,0,0,0,32.83,5,18.17,18.17,0,0,0,26.57,18.1,19.24,19.24,0,0,0,28,25.91c.33.85.75,1.73,1,2.66a9.45,9.45,0,0,1,.59,2.82,12.67,12.67,0,0,1-.74,4.47v0A133.63,133.63,0,0,0,17.68,47.07a19.36,19.36,0,0,0,2.18-8.16c0-1.42-.12-2.79.05-4.23a12,12,0,0,1,1.58-4.39c1.38-2.5,3.23-4.91,4.08-7.61.71-2.26,0-4.09-2.05-4.07a10.22,10.22,0,0,0-5.85,2.63A18.21,18.21,0,0,0,11.41,34.3a19.29,19.29,0,0,0,1.42,7.82c.33.85.75,1.73,1,2.66a9.38,9.38,0,0,1,.59,2.82,11.57,11.57,0,0,1-.56,3.89C12,53.83,10,56.34,8,59.05L8,59.1a1.27,1.27,0,0,0-.64.94l-1.07,1.5a.63.63,0,0,0,0,.85h0a.6.6,0,0,0,.78-.26c.68-1,1.36-1.91,2-2.84a8.75,8.75,0,0,1,3.58-.55,7,7,0,0,1,2.48.76,25.66,25.66,0,0,1,2.33,1.24,14,14,0,0,0,6.89,1.84A14.91,14.91,0,0,0,36.16,56a13,13,0,0,0,2.52-6.5c.09-2.31-1.52-3.17-3.54-2.44-2.43.88-4.62,2.88-6.88,4.36a9.5,9.5,0,0,1-4,1.65,33.38,33.38,0,0,1-3.75-.08,14.54,14.54,0,0,0-9.8,4.15q1.51-2,3-3.86Z"/><path class="cls-2" d="M41.85,42.89a16,16,0,0,0,6.49-3.52c.43-.39-.22-1-.64-.63A15,15,0,0,1,41.59,42a16.36,16.36,0,0,1-6.93.27.4.4,0,0,0-.19.78A14.77,14.77,0,0,0,41.85,42.89Z"/><path class="cls-2" d="M29.49,58.57A7.64,7.64,0,0,0,34.2,54c.18-.55-.7-.76-.88-.21a6.8,6.8,0,0,1-4.34,4,14.67,14.67,0,0,1-6.91.26c-.48-.07-.67.64-.18.74A13.73,13.73,0,0,0,29.49,58.57Z"/><path class="cls-2" d="M30.79,55.56c.38-.45-.25-1.08-.66-.64-1.26,1.36-3.25,1.08-4.91,1-.46,0-.53.71-.09.79C27,57.06,29.42,57.2,30.79,55.56Z"/><path class="cls-2" d="M48.68,17.79c2-2.16,4.27-4.53,7.34-5,.45-.07.43-.77,0-.71-3.27.49-5.76,2.81-7.83,5.24C47.88,17.65,48.37,18.13,48.68,17.79Z"/><path class="cls-2" d="M51.33,17.93c.28-.29.53-.61.83-.88a5.73,5.73,0,0,1,.93-.71,6.15,6.15,0,0,1,2.22-.86.39.39,0,0,0,.26-.49.4.4,0,0,0-.49-.26,6.89,6.89,0,0,0-2.42.94,7.43,7.43,0,0,0-1,.81,4.25,4.25,0,0,0-.86,1A.36.36,0,0,0,51.33,17.93Z"/><path class="cls-2" d="M29.3,15.69a19,19,0,0,1,1.9-4.86,15.69,15.69,0,0,1,3.35-4c.39-.33-.19-.88-.57-.55a15.55,15.55,0,0,0-5.39,9.24A.37.37,0,0,0,29.3,15.69Z"/><path class="cls-2" d="M31.25,15.59A21,21,0,0,1,32,13.54a10.62,10.62,0,0,1,1.13-1.89.45.45,0,0,0,0-.6.43.43,0,0,0-.61,0,9.71,9.71,0,0,0-2,4.36A.37.37,0,0,0,31.25,15.59Z"/><path class="cls-2" d="M13.15,34.18a18.42,18.42,0,0,1,4.5-8.87c.34-.4-.25-1-.59-.57-2.28,2.66-4.27,5.8-4.64,9.36C12.37,34.52,13.08,34.59,13.15,34.18Z"/><path class="cls-2" d="M15.81,34a17,17,0,0,1,2.27-5.71c.29-.45-.43-.85-.73-.4a13.7,13.7,0,0,0-2.29,5.92C15,34.31,15.7,34.51,15.81,34Z"/><path class="cls-2" d="M40.38,41.2a10.65,10.65,0,0,0,1.93-.39,10,10,0,0,0,3.44-1.87c.4-.33-.15-1-.56-.71A10.21,10.21,0,0,1,42,39.86a9.67,9.67,0,0,1-1.68.36c-.62.06-1.24,0-1.85.06a.46.46,0,0,0-.09.9A5.92,5.92,0,0,0,40.38,41.2Z"/></svg>