<svg id="圖層_1" data-name="圖層 1" xmlns="http://www.w3.org/2000/svg" viewBox="0 0 25 25"><defs><style>.cls-1{fill:#f3e7cf;}</style></defs><path class="cls-1" d="M12.52,1.14h7.25a4.08,4.08,0,0,1,4,3.53,3.68,3.68,0,0,1,.05.58V19.76a4.08,4.08,0,0,1-3.52,4,3.57,3.57,0,0,1-.46,0H5.09A4.09,4.09,0,0,1,1.2,20.38a6.81,6.81,0,0,1-.05-.78c0-4.76,0-9.52,0-14.29A4.14,4.14,0,0,1,4.42,1.23a3.84,3.84,0,0,1,.76-.08ZM12.21,4.7c-.33,0-.93.08-1.51.18A8.42,8.42,0,0,0,5.56,7.7a5.84,5.84,0,0,0-1.44,3.55A5.56,5.56,0,0,0,5,14.56a7.66,7.66,0,0,0,4.3,3.21c.63.2,1.29.3,1.93.46s.66.36.58.89l-.15,1c0,.34.15.55.48.45a4.55,4.55,0,0,0,.79-.33,30.7,30.7,0,0,0,3.87-2.59,13.53,13.53,0,0,0,2.95-2.95,5.44,5.44,0,0,0,1-3.88A6.1,6.1,0,0,0,18.4,6.74,9.57,9.57,0,0,0,12.21,4.7Z"/><path class="cls-1" d="M12.38,11.37v2c0,.16,0,.28-.22.28-.72,0-.6.05-.6-.54,0-1,0-2,0-3,0-.25.08-.32.32-.33a.72.72,0,0,1,.72.35c.4.59.84,1.15,1.27,1.73l.2.25a3.26,3.26,0,0,0,0-.34c0-.57,0-1.13,0-1.7,0-.21.06-.29.28-.29.52,0,.52,0,.52.5v3c0,.35,0,.34-.36.36a.64.64,0,0,1-.63-.31c-.4-.58-.84-1.15-1.27-1.72-.05-.08-.12-.15-.18-.23Z"/><path class="cls-1" d="M15.57,11.66V10c0-.2.07-.28.27-.28h2c.2,0,.31.07.29.29v.22c0,.21-.07.3-.28.3-.4,0-.8,0-1.2,0s-.29.18-.3.39,0,.33.3.31.8,0,1.2,0c.19,0,.27.08.28.27,0,.52,0,.55-.5.55h-1c-.22,0-.28.08-.29.29,0,.42,0,.42.42.42h1.07c.21,0,.3.09.29.29v.2c0,.24-.08.34-.33.33H15.88c-.24,0-.32-.08-.31-.31C15.58,12.75,15.57,12.2,15.57,11.66Z"/><path class="cls-1" d="M7.74,11.29c0,.41,0,.81,0,1.22,0,.2.06.28.26.27H9.23c.19,0,.25.07.25.25,0,.57,0,.57-.53.57H7.22c-.22,0-.31-.08-.31-.3q0-1.62,0-3.24c0-.24.1-.31.32-.31.51,0,.51,0,.51.49Z"/><path class="cls-1" d="M10.08,11.68V10c0-.2.06-.27.26-.28.56,0,.56,0,.56.54v3c0,.34,0,.36-.37.36h-.2c-.19,0-.25-.08-.25-.26Z"/></svg>