<svg id="圖層_1" data-name="圖層 1" xmlns="http://www.w3.org/2000/svg" viewBox="0 0 31 30"><defs><style>.cls-1{fill:#873032;}</style></defs><path class="cls-1" d="M25.93,4.34C22.89,1.86,19.35.83,15,.76c-.58.06-1.62.12-2.65.3a14.9,14.9,0,0,0-9,5A10.18,10.18,0,0,0,.8,12.27a9.81,9.81,0,0,0,1.57,5.84,13.51,13.51,0,0,0,7.57,5.65c1.11.35,2.27.53,3.4.81.92.23,1.17.63,1,1.56L14.1,28c-.09.59.26.95.84.78a7,7,0,0,0,1.39-.58,53,53,0,0,0,6.82-4.56,24.28,24.28,0,0,0,5.19-5.18,9.61,9.61,0,0,0,1.76-6.84A10.75,10.75,0,0,0,25.93,4.34ZM9.29,16.41c-1,0-2,0-3,0-.39,0-.53-.15-.53-.53q0-2.85,0-5.7c0-.42.16-.55.56-.55.89,0,.89,0,.89.86v1.85c0,.71,0,1.43,0,2.15,0,.34.1.49.46.48.72,0,1.44,0,2.16,0,.33,0,.44.13.45.45C10.27,16.41,10.28,16.41,9.29,16.41Zm3.43-.62c0,.6,0,.62-.64.62h-.36c-.33,0-.45-.14-.44-.46,0-1,0-1.94,0-2.91s0-1.94,0-2.91c0-.35.12-.48.47-.49,1,0,1,0,1,.95Zm7,0c0,.62,0,.61-.62.65A1.13,1.13,0,0,1,18,15.87c-.71-1-1.48-2-2.23-3-.1-.14-.21-.27-.32-.4l-.14.05v.75c0,.89,0,1.79,0,2.69,0,.27-.06.48-.39.48-1.26,0-1,.09-1.06-.95,0-1.75,0-3.5,0-5.25,0-.43.14-.55.56-.58a1.27,1.27,0,0,1,1.26.63c.71,1,1.49,2,2.24,3,.08.12.18.22.36.44,0-.28.06-.43.07-.58,0-1,0-2,0-3,0-.36.12-.5.49-.5.92,0,.92,0,.92.88Zm3.32-.8H25c.38,0,.52.16.51.51v.36c0,.41-.14.59-.58.58-1.13,0-2.27,0-3.41,0-.42,0-.55-.15-.54-.55,0-1,0-1.92,0-2.87s0-1.92,0-2.88c0-.34.12-.48.47-.48,1.18,0,2.37,0,3.55,0,.36,0,.54.13.51.5v.4c0,.36-.13.52-.5.52-.7,0-1.41,0-2.11,0-.52,0-.51.31-.52.68s.07.58.52.56c.7,0,1.41,0,2.11,0,.34,0,.48.16.5.48.07.93,0,1-.88,1-.58,0-1.17,0-1.75,0-.38,0-.5.15-.5.5C22.34,15,22.33,15,23.08,15Z"/></svg>