<svg id="圖層_1" data-name="圖層 1" xmlns="http://www.w3.org/2000/svg" viewBox="0 0 96 63"><defs><style>.cls-1{fill:#873032;}.cls-2{fill:#b3985a;}</style></defs><path class="cls-1" d="M89.61,25.73H85.06c-.61,0-.9-.4-.64-1a27.18,27.18,0,0,0,1.85-6.84c.6-3.44,1.11-6.9,1.72-10.34A21.53,21.53,0,0,1,89.6,2.21a6.42,6.42,0,0,1,.7-1.15A.89.89,0,0,1,91.71.91a4.2,4.2,0,0,1,.87,1.18A14.86,14.86,0,0,1,93.9,6.7q.8,5.71,1.46,11.43c.22,1.83.35,3.68.52,5.52A1.78,1.78,0,0,1,94,25.73Z"/><path class="cls-1" d="M33.23,25.73H27.37a1.7,1.7,0,0,1-.51-.17,1.47,1.47,0,0,1,.27-.51,9.5,9.5,0,0,0,2-2.87,26.62,26.62,0,0,0,2.24-7.85,48.69,48.69,0,0,1,1.46-7.46,15.45,15.45,0,0,1,.93-2.23c.25-.52.61-1,1.26-1a1.39,1.39,0,0,1,1.28,1.12,25,25,0,0,1,1.07,3.75c.63,3.93,1.16,7.87,1.74,11.8.23,1.5.5,3,.77,4.48.12.7-.07,1-.77,1Z"/><path class="cls-2" d="M54.87,19.85H51.58c-.43,0-.53-.14-.34-.52a13.53,13.53,0,0,0,1.13-4.41,69.87,69.87,0,0,1,1.46-9,8.73,8.73,0,0,1,.66-1.72c.42-.77,1-.78,1.33,0a15.09,15.09,0,0,1,1,2.93c.46,2.15.83,4.32,1.19,6.49.29,1.78.52,3.58.79,5.37.09.6-.11.84-.72.84Z"/><path class="cls-2" d="M14.83,43.17l2.27,4.38a8.53,8.53,0,0,1-1.15,0c-.13,0-.26-.22-.34-.36-.63-1.2-1.26-2.39-1.87-3.59a.57.57,0,0,0-.58-.39c-.39,0-.78,0-1.17,0s-.53.1-.52.51c0,1.09,0,2.19,0,3.29,0,.59,0,.59-.62.59-.21,0-.42,0-.65,0V38.61l.44,0c1.19,0,2.38,0,3.56,0a2.25,2.25,0,0,1,2.32,1.85A2.19,2.19,0,0,1,15.06,43Zm-3.35-2.32c0,.54,0,1.08,0,1.62,0,.36.12.47.47.45s.81,0,1.22,0a2,2,0,0,0,2.12-1.76,1.88,1.88,0,0,0-1.66-2.31c-.59-.05-1.19,0-1.79,0-.28,0-.36.14-.36.4C11.48,39.77,11.48,40.31,11.48,40.85Z"/><path class="cls-2" d="M36.17,47.56c0-.2,0-.32,0-.44,0-2.64,0-5.28,0-7.92,0-.4.14-.48.5-.48.93,0,1.86,0,2.79,0a4.53,4.53,0,0,1,4.29,3.35,4.46,4.46,0,0,1-2.1,4.86,4.05,4.05,0,0,1-2.17.62C38.37,47.55,37.3,47.56,36.17,47.56Zm1.28-4.4c0,1.24,0,2.49,0,3.73,0,.33.09.47.43.45s.93,0,1.4,0a2.66,2.66,0,0,0,2.82-2,7.19,7.19,0,0,0,.07-4.16A2.71,2.71,0,0,0,39.26,39q-.67,0-1.35,0c-.36,0-.47.1-.47.45C37.46,40.67,37.45,41.91,37.45,43.16Z"/><path class="cls-2" d="M74.87,54.94c.59.22,1.17.61,1.69-.12l.64.47-.18.63a1.51,1.51,0,0,0,.54.1.39.39,0,0,0,.24-.31c0-.49,0-1,0-1.47h.82l-.1,1.7c.51.26.8,0,1.1-.34l.6.49A4.58,4.58,0,0,0,80,57c-.08,1.48-.11,3-.21,4.45,0,.71-.42,1-1,1l-.7-.84h.11c.88,0,.9,0,1-.93.11-1.34.08-2.7.12-4,0-.32-.17-.37-.43-.37s-.33.12-.35.38c-.1,1.13-.17,2.27-.37,3.39A4.29,4.29,0,0,1,76.6,62.6a.45.45,0,0,1-.22.1,6.29,6.29,0,0,0,1.26-3.07c.13-1.09.17-2.2.24-3.28-.81-.24-.9-.17-.9.53,0,1.16,0,2.32,0,3.47,0,.51-.08.58-.65.52a1.45,1.45,0,0,1,0-.3c0-.32,0-.49-.43-.49s-.46.18-.44.5a1.89,1.89,0,0,1,0,.63c-.05.13-.24.21-.37.31-.07-.1-.21-.21-.21-.31,0-2,0-4.09,0-6.13C74.82,55.05,74.84,55,74.87,54.94Zm1.41.58c-.73-.21-.86-.13-.86.54v3.32c0,.31,0,.55.43.56s.46-.2.44-.53,0-.45,0-.67Z"/><path class="cls-2" d="M65.79,43.11a4.65,4.65,0,0,1-4.26,4.65,4.53,4.53,0,0,1-4.47-4.56,4.68,4.68,0,0,1,4.32-4.62A4.53,4.53,0,0,1,65.79,43.11Zm-1.3.08A23.44,23.44,0,0,0,64,40.44a2.45,2.45,0,0,0-2.52-1.72,2.48,2.48,0,0,0-2.51,1.7,9.28,9.28,0,0,0-.4,2.1A7.69,7.69,0,0,0,58.9,46a2.47,2.47,0,0,0,2.67,1.62A2.36,2.36,0,0,0,64,45.88,26.76,26.76,0,0,0,64.49,43.19Z"/><path class="cls-2" d="M26.82,40.84v6.69h-.19a2.73,2.73,0,0,1-.05-.4c0-2.65,0-5.29,0-7.94a1.41,1.41,0,0,1,.13-.43,1.31,1.31,0,0,1,.41.2q3.06,3.09,6.11,6.2l.34.33.13,0V38.78h.18a2,2,0,0,1,.07.42c0,2.65,0,5.29,0,7.94a1.52,1.52,0,0,1-.12.4,1.69,1.69,0,0,1-.4-.21q-3.06-3.09-6.1-6.2L27,40.81Z"/><path class="cls-2" d="M90.86,60l-1.17.71-.25-.58a.66.66,0,0,1-.87.6v-.94c-.07,0-.09-.09-.12-.09-.85-.1-.85-.1-.85.75,0,.18.05.4,0,.53a.9.9,0,0,1-.46.31A.53.53,0,0,1,86.9,61q0-3.09,0-6.18a1.15,1.15,0,0,1,0-.2c.65.23,1.31.63,1.91-.12l.66.51a1.86,1.86,0,0,0-.2.57c0,1.34,0,2.68,0,4a2.12,2.12,0,0,0,0,.32c.51-.16,1-.3,1.46-.46A.39.39,0,0,0,91,59.2c0-.37,0-.75,0-1.16L89.75,58v-.18c.29,0,.58,0,.86,0s.39-.09.37-.37a4.38,4.38,0,0,1,0-.81c.06-.48-.16-.61-.59-.57a5.3,5.3,0,0,1-.69,0V55.9c.28,0,.57,0,.86,0s.43-.09.41-.41,0-.84,0-1.27h.94a5.57,5.57,0,0,0-.17.83c0,1.19,0,2.37,0,3.56,0,.16,0,.32,0,.53l.6-.13c-.66.27-.69.89-.86,1.45A3.54,3.54,0,0,1,89,62.78,4,4,0,0,0,90.86,60Zm-2.31-.61c0-1.26,0-2.52,0-3.78,0-.35-.08-.51-.47-.51s-.51.16-.5.54c0,1,0,2.07,0,3.1,0,.8,0,.8.81.71C88.44,59.49,88.46,59.47,88.55,59.43Z"/><path class="cls-2" d="M24.25,47.52l-.41,0H19.47c-.34,0-.48-.06-.48-.44,0-2.65,0-5.29,0-7.93,0-.31.06-.47.41-.47,1.5,0,3,0,4.51,0a2.41,2.41,0,0,1,.35.07v.14l-.46,0H20.69c-.33,0-.48.07-.47.44,0,1,0,2,0,3.07,0,.36.13.45.47.44.75,0,1.5,0,2.26,0a2.71,2.71,0,0,1,.4,0v.14l-.45.06c-.73,0-1.47,0-2.2,0-.34,0-.49.09-.48.46q0,1.62,0,3.24c0,.39.14.49.5.48,1,0,2,0,3.06,0,.16,0,.31,0,.47,0Z"/><path class="cls-2" d="M87.93,47.51c-.13,0-.27,0-.4,0H83.11c-.33,0-.44-.08-.43-.43q0-4,0-8c0-.3.08-.43.4-.42,1.5,0,3,0,4.51,0a2.41,2.41,0,0,1,.35.07v.14l-.45,0H84.37c-.33,0-.46.08-.45.42,0,1,0,2.08,0,3.11,0,.35.13.43.46.42.73,0,1.47,0,2.2,0H87l0,.15a2.07,2.07,0,0,1-.42.08c-.73,0-1.47,0-2.2,0-.34,0-.5.09-.49.46,0,1.1,0,2.19,0,3.29,0,.32.11.44.45.44,1,0,2.07,0,3.1,0a3.42,3.42,0,0,1,.46,0Z"/><path class="cls-2" d="M91.49,42.93h3v.15a4.9,4.9,0,0,1-1.48.07c-.51,0-1,0-1.56,0,0,1.36,0,2.63,0,3.91,0,.09.22.25.35.25,1.06,0,2.13,0,3.2,0l.46,0v.14a2,2,0,0,1-.34,0H90.65c-.31,0-.43-.09-.43-.41,0-2.67,0-5.35,0-8,0-.29.11-.4.4-.4,1.52,0,3,0,4.56,0a2.06,2.06,0,0,1,.32.07v.13h-4Z"/><path class="cls-2" d="M0,38.8H8.09l0,.13c-.14,0-.27,0-.4,0C6.86,39,6,39,5.15,39c-.37,0-.45.13-.45.47,0,2.51,0,5,0,7.52v.6c-.38,0-.72,0-1.06,0s-.24-.25-.24-.43V39.59c0-.62,0-.62-.6-.62H.41a2.85,2.85,0,0,1-.41,0Z"/><path class="cls-2" d="M72.94,39l-.46,0h-3.2c-.23,0-.42,0-.42.32,0,1.12,0,2.25,0,3.37A1.3,1.3,0,0,0,69,43h3v.15l-.43.06c-.72,0-1.44,0-2.16,0-.41,0-.52.14-.52.53,0,1.11,0,2.22,0,3.33,0,.44-.13.6-.56.55a4.77,4.77,0,0,0-.66,0c0-.19,0-.33,0-.48,0-2.61,0-5.22,0-7.84,0-.4.11-.51.51-.51,1.45,0,2.91,0,4.37,0a3.8,3.8,0,0,1,.46.05Z"/><path class="cls-2" d="M80.44,38.94,80,39h-3.2c-.29,0-.4.08-.39.38,0,1.07,0,2.13,0,3.2,0,.31.12.38.4.37q1.13,0,2.25,0c.14,0,.27,0,.41,0v.15l-.44.06h-1.9c-.72,0-.72,0-.72.7v3.6c-.08,0-.1.07-.13.07-1.11.11-1.11.11-1.11-1,0-2.42,0-4.84,0-7.26,0-.43.13-.57.56-.56,1.41,0,2.82,0,4.23,0a3.86,3.86,0,0,1,.49.06Z"/><path class="cls-2" d="M55.8,46.22a4.14,4.14,0,0,1-5.92.5,4.62,4.62,0,0,1-.19-6.84,4,4,0,0,1,6,.07.86.86,0,0,1-1-.33,2.75,2.75,0,0,0-4.54.72,8.57,8.57,0,0,0-.39,3.95A6.7,6.7,0,0,0,50.13,46a2.29,2.29,0,0,0,2.14,1.59,2.58,2.58,0,0,0,2.64-1.09C55.14,46.13,55.43,46.24,55.8,46.22Z"/><path class="cls-2" d="M82.24,62.21v-.47c0-.5-.31-.71-.77-.51a.4.4,0,0,0-.18.27,2.26,2.26,0,0,0,0,.45c0,.53-.06.59-.66.62V55.11l1.25.25c.09,0,.22,0,.26,0,.45-.57.75-.15,1,.11,0,.33-.12.62-.13.91,0,1.73,0,3.46,0,5.18C83,62.1,82.92,62.19,82.24,62.21Zm0-6.64h-.55c-.31,0-.38.12-.38.39q0,2.32,0,4.65c0,.29.11.42.39.4l.54,0Z"/><path class="cls-2" d="M94.45,57.13l.78.84H93.52v1.85c.6.11.6.11,1.19-.61l.83.87c-.6,0-1.1,0-1.6,0s-.47.13-.46.47c0,.54,0,1.08,0,1.62s-.13.66-.76.59V54.18l1,.07c-.44.48-.27,1-.24,1.47,0,.23.43.26.61.06s.26-.33.41-.54l.75.71,0,.13-.71,0c-1.09,0-1.09,0-1.08,1.1a.87.87,0,0,0,0,.23c0,.11.09.32.14.32a.71.71,0,0,0,.43-.14A3.33,3.33,0,0,0,94.45,57.13Z"/><path class="cls-2" d="M65.15,54.56a4.1,4.1,0,0,0-.16.79c0,2.27,0,4.53,0,6.8,0,.15,0,.38-.1.45a.93.93,0,0,1-.57.16s-.14-.26-.14-.41c0-2.47,0-5,0-7.42,0-.43.16-.53.53-.46Z"/><path class="cls-2" d="M58.41,54.45l1,.11a4.51,4.51,0,0,0-.17.86c-.06,1.33,0,2.67-.15,4a4.56,4.56,0,0,1-1.64,3.19,3.6,3.6,0,0,1-.3.21c.27-.53.54-1,.74-1.48a9,9,0,0,0,.54-3.22C58.43,56.93,58.41,55.73,58.41,54.45Z"/><path class="cls-2" d="M62.16,55a3.81,3.81,0,0,0-.17.78c0,1.83,0,3.66,0,5.49,0,.24,0,.44-.28.53s-.51.05-.51-.35c0-2,0-4.08,0-6.12,0-.32.13-.43.43-.38S62,55,62.16,55Z"/></svg>