<svg id="圖層_1" data-name="圖層 1" xmlns="http://www.w3.org/2000/svg" viewBox="0 0 142.94 93.18"><defs><style>.cls-1{fill:#f1e5cd;}</style></defs><path class="cls-1" d="M132,37.88h-6.61c-.89,0-1.3-.57-.93-1.39a39.37,39.37,0,0,0,2.69-9.93c.87-5,1.62-10,2.5-15A31,31,0,0,1,132,3.74a8.64,8.64,0,0,1,1-1.67,1.28,1.28,0,0,1,2-.21,6,6,0,0,1,1.27,1.71,22,22,0,0,1,1.92,6.69c.77,5.52,1.45,11.06,2.12,16.59.32,2.66.5,5.34.75,8a2.58,2.58,0,0,1-2.75,3H132"/><path class="cls-1" d="M50.1,37.88c-2.84,0-5.68,0-8.52,0a2.4,2.4,0,0,1-.74-.25,2.27,2.27,0,0,1,.39-.74,13.51,13.51,0,0,0,2.87-4.17,38,38,0,0,0,3.26-11.39A71.11,71.11,0,0,1,49.48,10.5a23.68,23.68,0,0,1,1.35-3.25c.37-.75.89-1.49,1.84-1.48A2,2,0,0,1,54.52,7.4a35,35,0,0,1,1.55,5.44C57,18.54,57.76,24.27,58.61,30c.33,2.17.72,4.34,1.11,6.5.19,1-.09,1.4-1.11,1.4H50.1"/><path class="cls-1" d="M81.53,29.35H76.75c-.63,0-.77-.21-.5-.75a19.88,19.88,0,0,0,1.65-6.41c.6-4.37.94-8.78,2.11-13.06a12.89,12.89,0,0,1,1-2.48c.6-1.13,1.43-1.15,1.93,0a22.17,22.17,0,0,1,1.44,4.25c.66,3.12,1.2,6.27,1.72,9.42.43,2.59.77,5.2,1.15,7.8.13.87-.16,1.22-1,1.22H81.53"/><path class="cls-1" d="M23.36,63.2l3.31,6.36a12.94,12.94,0,0,1-1.67,0c-.19,0-.38-.32-.5-.53q-1.38-2.6-2.72-5.22a.81.81,0,0,0-.84-.55c-.56,0-1.13,0-1.7-.06s-.77.16-.76.75c0,1.59,0,3.18,0,4.77,0,.87,0,.87-.9.87h-1v-13c.23,0,.44,0,.65,0h5.17a3.26,3.26,0,0,1,3.37,2.69A3.2,3.2,0,0,1,23.7,63l-.34.18M18.5,59.83c0,.79,0,1.58,0,2.36,0,.53.17.69.68.65s1.18,0,1.77,0A2.87,2.87,0,0,0,24,60.29a2.74,2.74,0,0,0-2.42-3.36c-.86-.07-1.73,0-2.6,0-.4,0-.52.2-.52.57,0,.79,0,1.57,0,2.35"/><path class="cls-1" d="M54.37,69.57c0-.28,0-.46,0-.63,0-3.83,0-7.67,0-11.51,0-.57.21-.69.72-.68,1.36,0,2.71,0,4.06,0a6.59,6.59,0,0,1,6.24,4.86,6.47,6.47,0,0,1-3.05,7.05,5.86,5.86,0,0,1-3.16.9H54.37m1.86-6.39c0,1.81,0,3.62,0,5.43,0,.47.13.67.63.64.68,0,1.35,0,2,0a3.9,3.9,0,0,0,4.1-3,10.48,10.48,0,0,0,.1-6,4,4,0,0,0-4.23-3.15,16,16,0,0,1-2,0c-.52,0-.68.15-.67.66,0,1.81,0,3.62,0,5.42"/><path class="cls-1" d="M110.58,80.29c.86.32,1.71.89,2.45-.17l.93.68-.26.92a2.76,2.76,0,0,0,.78.15c.15,0,.35-.3.36-.46,0-.72,0-1.43,0-2.14h1.2c-.06.88-.11,1.69-.15,2.47.74.37,1.16,0,1.6-.5l.87.72a7.37,7.37,0,0,0-.31,1.31c-.11,2.15-.15,4.3-.3,6.45-.07,1-.61,1.44-1.43,1.46l-1-1.22.16,0c1.29,0,1.32.07,1.43-1.34.16-2,.11-3.92.17-5.88,0-.47-.24-.54-.62-.54s-.48.17-.52.55c-.14,1.64-.23,3.3-.53,4.91a6.3,6.3,0,0,1-2.31,3.78.63.63,0,0,1-.31.13,9.22,9.22,0,0,0,1.82-4.45c.19-1.59.25-3.19.36-4.76-1.18-.35-1.32-.25-1.32.77v5c0,.74-.12.83-1,.75a1.58,1.58,0,0,1,0-.43c0-.46-.06-.72-.63-.71s-.67.25-.64.72a2.52,2.52,0,0,1,0,.91c-.07.19-.35.31-.54.45-.11-.15-.31-.29-.31-.45,0-3,0-5.93,0-8.89a1,1,0,0,1,.08-.21m2,.85c-1.06-.32-1.25-.19-1.25.77,0,1.61,0,3.22,0,4.83,0,.45,0,.8.63.81s.67-.29.64-.77c0-.33,0-.65,0-1Z"/><path class="cls-1" d="M97.39,63.12a6.73,6.73,0,0,1-6.19,6.74,6.58,6.58,0,0,1-6.5-6.61c0-3.49,3-6.68,6.28-6.71a6.58,6.58,0,0,1,6.41,6.58m-1.89.11a35.87,35.87,0,0,0-.78-4,3.92,3.92,0,0,0-7.3,0,12.57,12.57,0,0,0-.59,3,11.13,11.13,0,0,0,.55,5c.63,1.66,1.9,2.4,3.89,2.36a3.43,3.43,0,0,0,3.51-2.5,37.72,37.72,0,0,0,.72-3.91"/><path class="cls-1" d="M40.79,59.83v9.7H40.5a5.41,5.41,0,0,1-.07-.58q0-5.76,0-11.52a2.49,2.49,0,0,1,.18-.63,1.86,1.86,0,0,1,.6.29c3,3,5.92,6,8.87,9l.5.48.19,0V56.83l.26,0a3.47,3.47,0,0,1,.1.62q0,5.76,0,11.52a2.19,2.19,0,0,1-.17.59,2.2,2.2,0,0,1-.59-.31c-3-3-5.91-6-8.86-9-.15-.16-.32-.3-.47-.45l-.26,0"/><path class="cls-1" d="M133.8,87.7l-1.69,1-.36-.83a1,1,0,0,1-1.28.87V87.4c-.1-.09-.13-.13-.16-.14-1.25-.14-1.25-.14-1.25,1.09,0,.26.09.57,0,.77a1.35,1.35,0,0,1-.67.45s-.3-.28-.3-.43q0-4.48,0-9a1,1,0,0,1,.08-.28c.94.33,1.89.92,2.78-.17l1,.74a2.62,2.62,0,0,0-.29.82c0,1.94,0,3.88,0,5.83a3.63,3.63,0,0,0,.07.45c.73-.23,1.43-.43,2.11-.67.12,0,.22-.27.23-.42,0-.54,0-1.08,0-1.68l-1.79-.1c0-.08,0-.17,0-.25.42,0,.83,0,1.25,0s.56-.13.53-.53a6.64,6.64,0,0,1,0-1.18c.09-.7-.23-.88-.86-.82-.33,0-.66,0-1,0v-.22c.42,0,.83,0,1.25,0s.63-.12.61-.59,0-1.21,0-1.85h1.37a7.68,7.68,0,0,0-.25,1.21c0,1.73,0,3.45,0,5.18,0,.23,0,.46,0,.76l.87-.19c-1,.4-1,1.29-1.25,2.11a5.15,5.15,0,0,1-3.58,3.35,5.86,5.86,0,0,0,2.63-4m-3.35-.9c0-1.82,0-3.65,0-5.47,0-.52-.11-.74-.68-.74s-.74.22-.73.78c0,1.49,0,3,0,4.5,0,1.15,0,1.16,1.18,1,0,0,.08,0,.21-.1"/><path class="cls-1" d="M37.05,69.52c-.2,0-.4,0-.6,0-2.12,0-4.23,0-6.35,0-.48,0-.69-.1-.69-.65,0-3.83,0-7.67,0-11.51,0-.45.09-.68.6-.67,2.19,0,4.37,0,6.55,0a3.06,3.06,0,0,1,.51.1,1.36,1.36,0,0,0,0,.2c-.22,0-.44,0-.66,0-1.5,0-3,0-4.51,0-.5,0-.71.11-.7.65,0,1.48,0,3,0,4.45,0,.53.2.66.69.64,1.09,0,2.19,0,3.28,0a5.7,5.7,0,0,1,.58.06v.2a4.66,4.66,0,0,1-.64.08c-1.07,0-2.14,0-3.21,0-.49,0-.7.15-.7.68q0,2.36,0,4.71c0,.56.21.7.73.69,1.48,0,3,0,4.45,0,.23,0,.45,0,.68,0v.24"/><path class="cls-1" d="M129.55,69.5a3.83,3.83,0,0,1-.58.07c-2.14,0-4.28,0-6.42,0-.47,0-.63-.13-.63-.62,0-3.87,0-7.73,0-11.59,0-.44.12-.62.58-.62,2.19,0,4.37,0,6.55,0a3,3,0,0,1,.51.09v.21c-.22,0-.43,0-.65,0-1.51,0-3,0-4.52,0-.48,0-.66.13-.66.62,0,1.5,0,3,0,4.51,0,.51.2.63.67.61,1.07,0,2.14,0,3.21,0h.6a1.7,1.7,0,0,1,0,.22,2.55,2.55,0,0,1-.6.12c-1.07,0-2.14,0-3.21,0-.48,0-.72.12-.71.66,0,1.59,0,3.19,0,4.78,0,.47.16.64.65.64,1.51,0,3,0,4.52,0,.22,0,.44,0,.66,0v.2"/><path class="cls-1" d="M134.72,62.86h4.37v.21a7.11,7.11,0,0,1-2.16.11c-.73,0-1.47,0-2.26,0,0,2,0,3.82,0,5.68,0,.13.33.36.51.36,1.55,0,3.1,0,4.65,0,.22,0,.45,0,.67,0v.2a2.78,2.78,0,0,1-.49.08c-2.18,0-4.37,0-6.55,0-.45,0-.62-.13-.62-.59,0-3.89,0-7.77,0-11.66,0-.42.16-.58.58-.57,2.2,0,4.41,0,6.61,0a1.88,1.88,0,0,1,.47.1v.19h-5.81Z"/><path class="cls-1" d="M1.84,56.85H13.58c0,.07,0,.13,0,.19a3.7,3.7,0,0,1-.57.07c-1.24,0-2.49,0-3.73,0-.54,0-.65.18-.65.67,0,3.64,0,7.29,0,10.93v.87H7.11c-.46,0-.34-.37-.34-.62,0-2,0-4,0-6V58c0-.9,0-.9-.87-.9H2.42a5.61,5.61,0,0,1-.59-.06c0-.06,0-.13,0-.2"/><path class="cls-1" d="M107.78,57.07c-.23,0-.45,0-.67,0h-4.65c-.34,0-.61,0-.61.45,0,1.64,0,3.27,0,4.91a2,2,0,0,0,.11.41h4.37v.22a4.48,4.48,0,0,1-.64.08c-1,0-2.09,0-3.14,0-.58,0-.75.21-.74.76,0,1.61,0,3.23,0,4.84,0,.64-.19.87-.81.8a7.55,7.55,0,0,0-1,0c0-.28,0-.49,0-.7,0-3.79,0-7.59,0-11.38,0-.58.16-.75.73-.74,2.12,0,4.23,0,6.35,0a4.93,4.93,0,0,1,.66.07v.24"/><path class="cls-1" d="M118.67,57.06c-.22,0-.44,0-.66,0-1.54,0-3.09,0-4.64,0-.42,0-.58.12-.57.56,0,1.54,0,3.09,0,4.64,0,.45.17.55.58.54,1.09,0,2.18,0,3.27,0a5.87,5.87,0,0,1,.59,0v.21a4.48,4.48,0,0,1-.64.08h-2.75c-1,0-1,0-1,1v5.24c-.12.06-.15.1-.19.1-1.61.15-1.61.15-1.61-1.45,0-3.51,0-7,0-10.53,0-.63.19-.82.82-.81,2,0,4.1,0,6.15,0a5.9,5.9,0,0,1,.72.09,1.48,1.48,0,0,0,0,.21"/><path class="cls-1" d="M82.88,67.62a6,6,0,0,1-8.6.74A6.71,6.71,0,0,1,74,58.43a5.84,5.84,0,0,1,8.68.09,1.21,1.21,0,0,1-1.41-.47c-1.3-1.82-5.43-2-6.6,1.05a12.55,12.55,0,0,0-.56,5.73,10,10,0,0,0,.53,2.48,3.32,3.32,0,0,0,3.11,2.3c1.53.12,3-.15,3.83-1.57.34-.54.76-.37,1.3-.42"/><path class="cls-1" d="M121.28,90.85v-.68c0-.73-.45-1-1.12-.74a.57.57,0,0,0-.25.39,4.66,4.66,0,0,0,0,.65c0,.77-.09.85-1,.9V80.54l1.82.36c.12,0,.32,0,.38-.06.65-.83,1.08-.22,1.48.16a9.58,9.58,0,0,0-.18,1.33c0,2.5,0,5,0,7.52,0,.84-.14,1-1.14,1m0-9.64c-.32,0-.56,0-.8,0-.44,0-.55.17-.55.58,0,2.25,0,4.49,0,6.74,0,.42.16.61.57.58l.78-.06Z"/><path class="cls-1" d="M139,83.47l1.14,1.22h-2.48v2.68c.86.17.86.17,1.73-.88.36.39.72.76,1.21,1.27-.87,0-1.6,0-2.33,0-.54,0-.69.19-.67.68,0,.79,0,1.57,0,2.36s-.19.95-1.1.86V79.18l1.51.12c-.65.68-.39,1.43-.36,2.13,0,.32.63.38.9.08a9.29,9.29,0,0,0,.59-.78l1.09,1,0,.18c-.34,0-.69,0-1,0-1.57,0-1.57,0-1.56,1.6a1.13,1.13,0,0,0,0,.32c.06.18.14.48.22.48a1.1,1.1,0,0,0,.62-.21,4.41,4.41,0,0,0,.55-.71"/><path class="cls-1" d="M96.46,79.74a5.71,5.71,0,0,0-.23,1.15c0,3.29,0,6.57,0,9.86,0,.23,0,.56-.14.67a1.52,1.52,0,0,1-.83.23c-.07,0-.2-.39-.2-.6,0-3.59,0-7.18,0-10.77,0-.62.23-.77.78-.67l.67.13"/><path class="cls-1" d="M86.67,79.58l1.42.16A8.13,8.13,0,0,0,87.84,81c-.08,1.93,0,3.88-.21,5.8a6.61,6.61,0,0,1-2.39,4.64c-.11.09-.24.17-.43.3.39-.77.79-1.44,1.07-2.15a13,13,0,0,0,.79-4.66c0-1.74,0-3.48,0-5.34"/><path class="cls-1" d="M92.12,80.32a5.85,5.85,0,0,0-.25,1.13c0,2.66,0,5.32,0,8,0,.34,0,.64-.42.77s-.73.06-.73-.51c0-3,0-5.92,0-8.89,0-.47.18-.62.62-.56s.6.06.8.08"/></svg>