<svg id="圖層_1" data-name="圖層 1" xmlns="http://www.w3.org/2000/svg" viewBox="0 0 42 42"><defs><style>.cls-1{fill:#f1e5cd;}</style></defs><path class="cls-1" d="M8.66,40.39c0,.43-.29.65-.89.65s-.88-.22-.88-.65V29.26H3.55a.61.61,0,0,1-.47-.18.8.8,0,0,1-.18-.59.82.82,0,0,1,.18-.59.64.64,0,0,1,.47-.17H12a.69.69,0,0,1,.48.17.82.82,0,0,1,.17.59.8.8,0,0,1-.17.59.65.65,0,0,1-.48.18H8.66Z"/><path class="cls-1" d="M24.81,29.35a7.47,7.47,0,0,1,1.57,5,7.61,7.61,0,0,1-1.57,5,5.08,5.08,0,0,1-4.1,1.89,5.11,5.11,0,0,1-4.11-1.89,7.61,7.61,0,0,1-1.58-5A7.19,7.19,0,0,1,16.92,29a5.12,5.12,0,0,1,3.79-1.51A5.13,5.13,0,0,1,24.81,29.35ZM20.71,39.7a3.3,3.3,0,0,0,2.8-1.45,6.46,6.46,0,0,0,1.06-3.9A5.9,5.9,0,0,0,23.13,30a3.29,3.29,0,0,0-2.42-1,3.34,3.34,0,0,0-2.81,1.42,6.39,6.39,0,0,0-1,3.87,6.53,6.53,0,0,0,1,3.9A3.32,3.32,0,0,0,20.71,39.7Z"/><path class="cls-1" d="M31.78,40.39c0,.43-.3.65-.89.65s-.89-.22-.9-.65V28.54a.8.8,0,0,1,.2-.61.82.82,0,0,1,.6-.2h3a5.52,5.52,0,0,1,4,1.23,3.73,3.73,0,0,1,1,2.75,3.63,3.63,0,0,1-1.33,3.06,5.64,5.64,0,0,1-3.57,1H31.78Zm0-6h1.89a3.77,3.77,0,0,0,2.73-.81A2.47,2.47,0,0,0,37,31.71a2.2,2.2,0,0,0-.82-1.95,4.79,4.79,0,0,0-2.62-.56H32.06a.29.29,0,0,0-.21.07.32.32,0,0,0-.07.23Z"/><polygon class="cls-1" points="21 0.73 9.86 20.71 32.14 20.71 21 0.73"/></svg>