<svg id="圖層_1" data-name="圖層 1" xmlns="http://www.w3.org/2000/svg" viewBox="0 0 120 80"><defs><style>.cls-1{fill:#f3e7cf;}</style></defs><path class="cls-1" d="M112.15,32.51c-1.9,0-3.8,0-5.7,0-.77,0-1.12-.49-.8-1.19A34.46,34.46,0,0,0,108,22.76c.74-4.3,1.39-8.63,2.15-12.93a26.83,26.83,0,0,1,2-6.72A8,8,0,0,1,113,1.68a1.11,1.11,0,0,1,1.77-.19A5.26,5.26,0,0,1,115.86,3a18.8,18.8,0,0,1,1.65,5.77c.67,4.75,1.26,9.52,1.83,14.28.27,2.3.44,4.6.65,6.9a2.23,2.23,0,0,1-2.37,2.6C115.79,32.52,114,32.51,112.15,32.51Z"/><path class="cls-1" d="M41.62,32.51c-2.44,0-4.89,0-7.33,0a2.28,2.28,0,0,1-.64-.21,2.05,2.05,0,0,1,.34-.64,11.69,11.69,0,0,0,2.47-3.59,32.93,32.93,0,0,0,2.81-9.81,61.4,61.4,0,0,1,1.82-9.32,20.71,20.71,0,0,1,1.17-2.8c.31-.64.76-1.28,1.58-1.27a1.76,1.76,0,0,1,1.59,1.4A30.12,30.12,0,0,1,46.77,11c.8,4.91,1.45,9.84,2.19,14.76.28,1.87.62,3.73.95,5.6.16.87-.08,1.2-1,1.2C46.51,32.52,44.07,32.51,41.62,32.51Z"/><path class="cls-1" d="M68.69,25.17H64.57c-.54,0-.66-.19-.42-.65A17.36,17.36,0,0,0,65.57,19,85.17,85.17,0,0,1,67.39,7.76a10.1,10.1,0,0,1,.83-2.14c.51-1,1.23-1,1.66,0a18.92,18.92,0,0,1,1.24,3.65c.57,2.69,1,5.4,1.48,8.12.37,2.23.66,4.48,1,6.72.11.74-.14,1.05-.9,1.05Z"/><path class="cls-1" d="M18.6,54.31l2.85,5.48a11.21,11.21,0,0,1-1.44,0c-.16,0-.33-.27-.42-.46-.8-1.49-1.58-3-2.35-4.49a.69.69,0,0,0-.72-.47c-.49,0-1,0-1.46-.05s-.67.13-.66.64c0,1.37,0,2.74,0,4.11,0,.75,0,.75-.77.75h-.82V48.62l.56,0c1.49,0,3,0,4.45,0a2.82,2.82,0,0,1,2.91,2.31,2.76,2.76,0,0,1-1.84,3.26A2.74,2.74,0,0,0,18.6,54.31ZM16,54h.51a2.45,2.45,0,0,0,2.68-2.16,2.36,2.36,0,0,0-2.25-2.94c-.66,0-1.31,0-2,0-.42,0-.54.18-.53.58,0,1,0,2,0,3C14.41,54,14.41,54,16,54Z"/><path class="cls-1" d="M45.3,59.8c0-.25,0-.39,0-.54,0-3.3,0-6.61,0-9.91,0-.5.18-.6.62-.59,1.17,0,2.33,0,3.5,0A5.68,5.68,0,0,1,54.75,53,5.59,5.59,0,0,1,52.12,59a5.11,5.11,0,0,1-2.72.77Zm1.6-5.55c0,1.58,0,3.16,0,4.73,0,.42.14.57.56.55.58,0,1.16,0,1.74,0A3.36,3.36,0,0,0,52.71,57a9,9,0,0,0,.1-5.2,3.42,3.42,0,0,0-3.66-2.76,13.61,13.61,0,0,1-1.69,0c-.46,0-.57.15-.57.58C46.91,51.18,46.9,52.72,46.9,54.25Z"/><path class="cls-1" d="M93.67,69c.76.27,1.51.77,2.16-.15l.78.59-.23.76a2.32,2.32,0,0,0,.71.15c.11,0,.28-.26.29-.41,0-.6,0-1.2,0-1.83h1.2c-.46.7-.2,1.41-.25,2.09a4,4,0,0,0,.91,0c.13,0,.21-.29.34-.47l.84.7a4.59,4.59,0,0,0-.27,1c-.07,1.65-.09,3.3-.14,5a4.34,4.34,0,0,1-.16,1,1.18,1.18,0,0,1-1.2,1l-.85-1.06s0,0,.08,0c1.12,0,1.16.09,1.25-1.12.14-1.7.13-3.42.14-5.12,0-.71-.53-.34-.9-.44-.06,1-.08,1.93-.17,2.85a7.57,7.57,0,0,1-1.64,4.41,4.52,4.52,0,0,1-1,.82,8.19,8.19,0,0,0,1.59-4c.15-1.25.14-2.51.19-3.76,0-.43-.32-.33-.56-.35s-.5.07-.49.43c0,1,0,2,0,2.93,0,.6,0,1.2,0,1.8s-.14.71-.83.61a1.58,1.58,0,0,1,0-.38c0-.43-.11-.6-.56-.59s-.56.2-.53.59c0,.2,0,.41,0,.62,0,.49-.24.61-.72.56Zm1.8,3.41c0-.77,0-1.53,0-2.3,0-.42-.17-.51-.53-.5s-.57.07-.56.49c0,1.56,0,3.11,0,4.66,0,.45.25.47.58.48s.52-.07.51-.47C95.46,74,95.47,73.23,95.47,72.44Z"/><path class="cls-1" d="M82.35,54.24A5.8,5.8,0,0,1,77,60.05a5.68,5.68,0,0,1-5.6-5.69,5.87,5.87,0,0,1,5.41-5.78A5.66,5.66,0,0,1,82.35,54.24Zm-1.7.48c-.1-1.09-.13-1.84-.24-2.58A6.35,6.35,0,0,0,80,50.85a3.16,3.16,0,0,0-3.16-2.1,3.08,3.08,0,0,0-3.1,2.08,10.69,10.69,0,0,0-.52,2.68,9.51,9.51,0,0,0,.47,4.33,3.1,3.1,0,0,0,3.35,2,3,3,0,0,0,3-2.16A24.48,24.48,0,0,0,80.65,54.72Z"/><path class="cls-1" d="M33.62,51.41v8.35h-.26a4.53,4.53,0,0,1-.06-.5q0-5,0-9.92a2.14,2.14,0,0,1,.15-.55,1.57,1.57,0,0,1,.52.25l7.64,7.75.43.41.16,0V48.83l.23,0a3.38,3.38,0,0,1,.09.54q0,4.95,0,9.92a2,2,0,0,1-.14.5,2.44,2.44,0,0,1-.51-.26Q38,55.64,34.24,51.75l-.41-.38Z"/><path class="cls-1" d="M113.7,75.41l-1.45.88-.32-.72a.83.83,0,0,1-1.09.75V75.15c-.09-.07-.11-.11-.15-.12-1.07-.12-1.07-.12-1.07.94,0,.23.07.49,0,.66A1.12,1.12,0,0,1,109,77s-.26-.24-.27-.37c0-2.57,0-5.15,0-7.72a1.22,1.22,0,0,1,.07-.25c.81.29,1.63.79,2.39-.14l.82.63a2.43,2.43,0,0,0-.25.71c0,1.68,0,3.35,0,5,0,.09,0,.18.06.39.63-.2,1.23-.37,1.82-.58.1,0,.19-.23.19-.36,0-.46,0-.93,0-1.45l-1.54-.08V72.6h1.08c.34,0,.48-.11.46-.45a5.79,5.79,0,0,1,0-1c.09-.6-.2-.76-.73-.71a8.42,8.42,0,0,1-.87,0v-.2c.36,0,.72,0,1.08,0s.54-.11.52-.51,0-1,0-1.59H115a6.48,6.48,0,0,0-.22,1c0,1.48,0,3,0,4.45,0,.2,0,.4,0,.66l.74-.16c-.82.34-.85,1.11-1.07,1.81a4.45,4.45,0,0,1-3.09,2.89A5,5,0,0,0,113.7,75.41Zm-2.92-6c-1-.29-1.16-.16-1.16.79V74c0,.74,0,.74.76.72a3.12,3.12,0,0,0,.4,0Z"/><path class="cls-1" d="M30.4,49c-.19,0-.38,0-.57,0-1.3,0-2.59,0-3.89,0-.42,0-.6.09-.59.56,0,1.27,0,2.55,0,3.83,0,.46.16.57.59.56.94,0,1.88,0,2.82,0a4.23,4.23,0,0,1,.5,0v.18c-.19,0-.38.07-.56.07q-1.38,0-2.76,0c-.42,0-.61.12-.6.58q0,2,0,4c0,.49.17.61.62.6,1.28,0,2.56,0,3.83,0,.2,0,.39,0,.58,0l0,.16a1.55,1.55,0,0,1-.36.08H24.29c-.38,0-.47-.14-.47-.49,0-3.34,0-6.69,0-10,0-.39.13-.52.52-.52H30a2.26,2.26,0,0,1,.44.08Z"/><path class="cls-1" d="M110,59.74h-6.51c0-.18,0-.35,0-.51,0-3.29,0-6.57,0-9.86,0-.47.13-.62.6-.61,1.82,0,3.65,0,5.47,0a3,3,0,0,1,.51.07V49c-.19,0-.37,0-.56,0h-3.94c-.25,0-.52,0-.51.34,0,1.46,0,2.93,0,4.39,0,.05,0,.1.12.24h3.72v.19a5.17,5.17,0,0,1-.55.07c-.93,0-1.85,0-2.77,0-.4,0-.57.13-.57.55q0,2.05,0,4.11c0,.45.17.58.6.57,1.28,0,2.56,0,3.84,0a5.46,5.46,0,0,1,.57,0Z"/><path class="cls-1" d="M119.5,49h-5v5h3.77v.24h-3.78v5.26h5l0,.19a2.93,2.93,0,0,1-.41.07h-5.7c-.36,0-.49-.12-.49-.49,0-3.34,0-6.69,0-10,0-.35.1-.52.48-.52h5.75a1.55,1.55,0,0,1,.36.08Z"/><path class="cls-1" d="M10.33,49H6V59.79c-.51,0-1,0-1.38,0a.39.39,0,0,1-.26-.27,3.08,3.08,0,0,1,0-.68v-8.9c0-1,0-.85-.89-.86H.6c-.18,0-.35,0-.6,0C.41,48.69,9.77,48.67,10.33,49Z"/><path class="cls-1" d="M91.29,49c-.19,0-.38,0-.58,0h-4c-.28,0-.52,0-.52.39,0,1.41,0,2.82,0,4.22a1.86,1.86,0,0,0,.1.36h3.76v.18a3.31,3.31,0,0,1-.55.08c-.9,0-1.8,0-2.7,0-.5,0-.65.18-.64.66,0,1.39,0,2.78,0,4.17,0,.55-.17.75-.7.68a7.64,7.64,0,0,0-.83,0c0-.24,0-.42,0-.6,0-3.27,0-6.54,0-9.8,0-.5.14-.65.63-.64,1.82,0,3.64,0,5.47,0,.19,0,.38,0,.57,0Z"/><path class="cls-1" d="M95.62,59.69l-.13.07c-1.42.18-1.42.18-1.42-1.21,0-3,0-6,0-9.07,0-.57.17-.74.74-.73,1.76,0,3.53,0,5.29,0,.19,0,.38,0,.57,0V49h-5v5h3.77l0,.21a3.46,3.46,0,0,1-.53.09c-.79,0-1.58,0-2.37,0s-.93,0-.93.9v4.49Z"/><path class="cls-1" d="M69.85,58.12a5.18,5.18,0,0,1-7.41.64,5.78,5.78,0,0,1-.23-8.55,5,5,0,0,1,7.48.08,1,1,0,0,1-1.22-.41,3.44,3.44,0,0,0-5.68.9,10.78,10.78,0,0,0-.49,4.94,8.62,8.62,0,0,0,.46,2.13,2.87,2.87,0,0,0,2.68,2,3.22,3.22,0,0,0,3.3-1.36C69,58,69.39,58.16,69.85,58.12Z"/><path class="cls-1" d="M102.92,78.13v-.59c0-.63-.37-.89-1-.64a.5.5,0,0,0-.22.33,1.75,1.75,0,0,0,0,.56c.08.6-.23.8-.83.8V69.25l1.56.3a.71.71,0,0,0,.38-.06c.69-.38.69-.39,1.24.18a5.07,5.07,0,0,0-.17.94c0,2.21,0,4.43,0,6.64C103.9,78,103.79,78.09,102.92,78.13Zm0-8.31a5.06,5.06,0,0,1-.69,0c-.38,0-.48.15-.48.5,0,1.94,0,3.87,0,5.8,0,.37.14.53.5.51l.67-.06Z"/><path class="cls-1" d="M118.2,71.75l1,1.06H117c0,.79,0,1.48,0,2.16,0,.08.18.22.26.21A1.85,1.85,0,0,0,118,75a2.31,2.31,0,0,0,.48-.64l1,1.12c-.73,0-1.36,0-2,0-.46,0-.6.16-.59.58,0,.74,0,1.47,0,2.2a.56.56,0,0,1-.52.62c-.32.06-.49,0-.49-.39q0-5,0-10.08a1.93,1.93,0,0,1,.06-.3l1.3.09c-.57.57-.32,1.19-.34,1.78,0,.09.14.26.22.26a1,1,0,0,0,.56-.14,3.8,3.8,0,0,0,.52-.66l.94.88,0,.16-1.34,0c-.87,0-.9-.22-.9.92,0,.27,0,.53,0,.79s.1.35.17.36a.71.71,0,0,0,.5-.13A4.63,4.63,0,0,0,118.2,71.75Z"/><path class="cls-1" d="M81.55,68.56a4.74,4.74,0,0,0-.2,1c0,2.84,0,5.67,0,8.5,0,.2,0,.48-.11.57a1.37,1.37,0,0,1-.72.2c-.06,0-.18-.33-.18-.51,0-3.09,0-6.19,0-9.28,0-.53.2-.67.66-.57Z"/><path class="cls-1" d="M71.57,78.83A8.56,8.56,0,0,0,73,75c.12-1.15.14-2.32.17-3.48,0-1,0-2,0-3l1.22.12a6.1,6.1,0,0,0-.21,1c-.07,1.66,0,3.34-.19,5a5.67,5.67,0,0,1-2,4A2,2,0,0,1,71.57,78.83Z"/><path class="cls-1" d="M77.81,69.06a6.5,6.5,0,0,0-.22,1q0,3.43,0,6.86c0,.3,0,.56-.36.67s-.64,0-.64-.43c0-2.56,0-5.11,0-7.66,0-.4.16-.54.54-.48S77.64,69,77.81,69.06Z"/></svg>