<svg id="圖層_1" data-name="圖層 1" xmlns="http://www.w3.org/2000/svg" viewBox="0 0 70 70"><defs><style>.cls-1{fill:#c88052;}.cls-2{fill:#a26a43;}.cls-3{fill:#7c6556;}.cls-4{fill:#5b483e;}</style></defs><polygon class="cls-1" points="54.54 34.39 54.54 58.75 39.5 58.75 39.5 43.98 31.16 43.98 31.16 58.75 15.46 58.75 15.46 34.39 35 19.36 54.54 34.39"/><path class="cls-2" d="M55.36,26.91V16.61H47.13v4L35,11.25,6.59,33.1l5.95,7.74L35,23.57,57.46,40.84l5.95-7.74Z"/><polygon class="cls-3" points="54.54 34.39 54.54 58.75 39.5 58.75 39.5 43.98 35 43.98 35 19.36 54.54 34.39"/><polygon class="cls-4" points="63.41 33.1 57.46 40.84 35 23.57 35 11.25 47.13 20.58 47.13 16.61 55.36 16.61 55.36 26.91 63.41 33.1"/></svg>