<svg id="圖層_1" data-name="圖層 1" xmlns="http://www.w3.org/2000/svg" viewBox="0 0 70 70"><defs><style>.cls-1{fill:#7c6556;}.cls-2{fill:#81d8ff;}.cls-3{fill:#cad3dd;}.cls-4{fill:#efefef;}.cls-5{fill:#c88052;}.cls-6{fill:#334a5e;}.cls-7{fill:#40596b;}.cls-8{fill:#a9b0b7;}</style></defs><path class="cls-1" d="M54.25,25.27H43V45.71H61.46v-9.2L59.3,29.06a5.25,5.25,0,0,0-5-3.79"/><path class="cls-2" d="M58.76,36.42l-1.93-6.65a2.7,2.7,0,0,0-2.58-1.94H45.54v8.59Z"/><polygon class="cls-3" points="58.76 36.41 45.53 36.41 45.53 27.83 58.76 36.41"/><path class="cls-4" d="M58.76,36.42l-1.93-6.65a2.7,2.7,0,0,0-2.58-1.94H45.54Z"/><path class="cls-5" d="M11.09,15H39.56A3.42,3.42,0,0,1,43,18.42V45.71H7.68V18.42A3.42,3.42,0,0,1,11.09,15"/><polygon class="cls-4" points="30.81 15.01 30.81 24.03 29.49 22.71 28.1 24.09 26.72 22.71 25.34 24.09 23.95 22.71 22.55 24.09 21.17 22.71 19.83 24.05 19.83 15.01 30.81 15.01"/><path class="cls-6" d="M62.32,45.71v3.86H7.68V45.71h5.71a7.83,7.83,0,0,1,13.66,0H45.39a7.82,7.82,0,0,1,13.65,0Z"/><path class="cls-7" d="M57.66,49.55a5.45,5.45,0,1,1-5.45-5.46,5.45,5.45,0,0,1,5.45,5.46"/><path class="cls-8" d="M54.4,49.55a2.19,2.19,0,1,1-2.19-2.19,2.19,2.19,0,0,1,2.19,2.19"/><path class="cls-7" d="M25.67,49.55a5.46,5.46,0,1,1-5.46-5.46,5.46,5.46,0,0,1,5.46,5.46"/><path class="cls-8" d="M22.4,49.55a2.19,2.19,0,1,1-2.19-2.19,2.19,2.19,0,0,1,2.19,2.19"/></svg>