<svg id="圖層_1" data-name="圖層 1" xmlns="http://www.w3.org/2000/svg" viewBox="0 0 70 70"><defs><style>.cls-1{fill:#fff;}.cls-2{fill:#5b483e;}.cls-3{fill:#f1e5cd;}.cls-4{fill:#7c6556;}</style></defs><rect class="cls-1" x="14.97" y="16.76" width="39.88" height="12.93"/><path class="cls-2" d="M13,57H57V13H13Zm19.8-3.67H26.2v-4.4h6.6Zm0-8.06H26.2v-4.4h6.6Zm0-8.07H26.2V32.8h6.6ZM43.07,53.33h-6.6v-4.4h6.6Zm0-8.06h-6.6v-4.4h6.6Zm0-8.07h-6.6V32.8h6.6Zm11,16.13H46.73V40.87h7.34Zm0-16.13H46.73V32.8h7.34ZM15.93,16.67H54.07V29.13H15.93Zm0,16.13h6.6v4.4h-6.6Zm0,8.07h6.6v4.4h-6.6Zm0,8.06h6.6v4.4h-6.6Z"/><rect class="cls-3" x="15.93" y="40.87" width="6.6" height="4.4"/><rect class="cls-3" x="36.47" y="40.87" width="6.6" height="4.4"/><rect class="cls-3" x="26.2" y="40.87" width="6.6" height="4.4"/><rect class="cls-3" x="15.93" y="48.93" width="6.6" height="4.4"/><rect class="cls-3" x="36.47" y="48.93" width="6.6" height="4.4"/><rect class="cls-3" x="26.2" y="48.93" width="6.6" height="4.4"/><path class="cls-2" d="M22.8,19.65a.75.75,0,0,0-.81.19l-1.4,1.54a.72.72,0,0,0-.17.73.73.73,0,0,0,1.25.26l.13-.14v3.24a.74.74,0,0,0,1.47,0V20.33a.74.74,0,0,0-.47-.68"/><path class="cls-2" d="M37.69,19.6a2.11,2.11,0,0,0-2.2,2,.74.74,0,0,0,1.47,0c0-.3.33-.55.73-.55s.73.25.73.55-.33.55-.73.55a.73.73,0,0,0,0,1.46c.4,0,.73.25.73.55s-.33.55-.73.55-.73-.25-.73-.55a.74.74,0,0,0-1.47,0,2.21,2.21,0,0,0,4.4,0,1.91,1.91,0,0,0-.5-1.28,1.91,1.91,0,0,0,.5-1.28,2.11,2.11,0,0,0-2.2-2"/><path class="cls-2" d="M30.85,24.73h-1.1a9.13,9.13,0,0,0,1.52-1.81,2.25,2.25,0,0,0,0-2.26,2.09,2.09,0,0,0-1.85-1.06,2.26,2.26,0,0,0-2.25,2.27.74.74,0,1,0,1.47,0,.78.78,0,0,1,.78-.8.63.63,0,0,1,.58.32.8.8,0,0,1,0,.79,9.66,9.66,0,0,1-1.82,2l-.79.76a.74.74,0,0,0-.16.8.75.75,0,0,0,.68.45h2.94a.74.74,0,0,0,0-1.47"/><path class="cls-2" d="M48.93,23.27H48.2V20.33a.73.73,0,0,0-.49-.69.75.75,0,0,0-.82.23L44,23.54a.73.73,0,0,0,.57,1.19h2.2v.74a.74.74,0,0,0,1.47,0v-.74h.73a.73.73,0,1,0,0-1.46m-2.2,0h-.67l.67-.85Z"/><rect class="cls-4" x="15.53" y="32.46" width="7.36" height="5.07" rx="0.99"/><rect class="cls-4" x="25.82" y="32.46" width="7.36" height="5.07" rx="0.99"/><rect class="cls-4" x="36.09" y="32.46" width="7.36" height="5.07" rx="0.99"/><rect class="cls-4" x="15.53" y="40.53" width="7.36" height="5.07" rx="0.99"/><rect class="cls-4" x="25.82" y="40.53" width="7.36" height="5.07" rx="0.99"/><rect class="cls-4" x="36.09" y="40.53" width="7.36" height="5.07" rx="0.99"/><rect class="cls-4" x="15.53" y="48.6" width="7.36" height="5.07" rx="0.99"/><rect class="cls-4" x="25.82" y="48.6" width="7.36" height="5.07" rx="0.99"/><rect class="cls-4" x="36.09" y="48.6" width="7.36" height="5.07" rx="0.99"/><rect class="cls-4" x="46.52" y="32.46" width="7.76" height="5.07" rx="0.99"/><rect class="cls-4" x="46.52" y="40.53" width="7.76" height="13.14" rx="0.99"/></svg>