<svg id="圖層_1" data-name="圖層 1" xmlns="http://www.w3.org/2000/svg" xmlns:xlink="http://www.w3.org/1999/xlink" viewBox="0 0 70 70"><defs><style>.cls-1{fill:none;}.cls-2{fill:#7c6556;}.cls-3{fill:#f7f7f7;}.cls-4{fill:#fff;}.cls-5{clip-path:url(#clip-path);}.cls-6{fill:#5b483e;}</style><clipPath id="clip-path"><rect class="cls-1" x="31.25" y="30.85" width="37.25" height="37.25"/></clipPath></defs><path class="cls-2" d="M20.13,1.91A18.27,18.27,0,0,0,1.5,19.76,17.54,17.54,0,0,0,7.71,33.05v5.34a.78.78,0,0,0,1.19.66l4.32-2.7a19.44,19.44,0,0,0,6.91,1.27A18.28,18.28,0,0,0,38.76,19.76,18.27,18.27,0,0,0,20.13,1.91"/><path class="cls-3" d="M32.39,14.64a.78.78,0,0,0-1-.22l-8.07,4.4-5-4.3a.77.77,0,0,0-1.06,0L7.94,23.87a.78.78,0,0,0,.92,1.23l8.07-4.4L22,25A.78.78,0,0,0,23,25l9.32-9.32a.76.76,0,0,0,.06-1"/><path class="cls-4" d="M65.83,47.37c0,6.4-6.5,11.59-14.51,11.59s-14.5-5.19-14.5-11.59,6.5-11.59,14.5-11.59S65.83,41,65.83,47.37"/><g class="cls-5"><path class="cls-6" d="M68.5,46.67v.22a2.34,2.34,0,0,0-.09.46,11.61,11.61,0,0,1-1.3,5,19.59,19.59,0,0,1-4.4,5.55A63.54,63.54,0,0,1,51.66,66a16.1,16.1,0,0,1-2.41,1.14c-.64.24-1,0-.9-.73s.24-1.65.32-2.48c.12-1.22-.16-1.69-1.24-2l-.49-.13c-1.28-.29-2.59-.49-3.84-.89A17.54,17.54,0,0,1,34,54.59a13,13,0,0,1-2.65-7.83,11.83,11.83,0,0,1,.82-4.39,15.69,15.69,0,0,1,7.5-8.16,21.14,21.14,0,0,1,11.6-2.47,21.38,21.38,0,0,1,5.5,1A17.75,17.75,0,0,1,66,39.34a12.65,12.65,0,0,1,2.33,5.91C68.39,45.72,68.44,46.2,68.5,46.67Zm-18.63-.24,1.5,2c.72,1,1.43,2,2.16,3a1,1,0,0,0,1.16.36,1,1,0,0,0,.7-1c0-2.49,0-5,0-7.47a1,1,0,0,0-1-1,1,1,0,0,0-1,1v4.42c-.1-.12-.16-.18-.2-.24C52,46,50.89,44.43,49.73,42.9a1.39,1.39,0,0,0-.77-.52c-.7-.13-1.18.36-1.18,1.11,0,1.74,0,3.49,0,5.23,0,.67,0,1.35,0,2a1,1,0,0,0,1.39,1,1.08,1.08,0,0,0,.7-1.12Zm9.57,5.43h1.77a1.05,1.05,0,1,0,0-2.1c-.7,0-1.41,0-2.11,0-.32,0-.47-.07-.44-.42a3.22,3.22,0,0,0,0-.76c0-.37.12-.45.46-.45a22.46,22.46,0,0,0,2.32,0A1,1,0,0,0,62.36,47a1,1,0,0,0-1.09-.94c-.75,0-1.5,0-2.25,0-.26,0-.38-.07-.36-.35s0-.65,0-1,.1-.35.36-.35h2.25a1.2,1.2,0,0,0,.46-.07,1,1,0,0,0,.62-1,.93.93,0,0,0-.85-.9c-1.35,0-2.71,0-4.06,0a.82.82,0,0,0-.72.54,2.23,2.23,0,0,0-.14.77c0,1.48,0,3,0,4.43,0,.83,0,1.65,0,2.47s.42,1.29,1.29,1.29ZM40,46.47v-1.6c0-.48,0-1,0-1.45a1,1,0,0,0-1.12-1.06,1,1,0,0,0-1,1.08v7.3A1,1,0,0,0,39,51.85q1.83,0,3.66,0a1,1,0,1,0-.06-2.09c-.73,0-1.45,0-2.18,0-.3,0-.4-.09-.39-.4C40,48.41,40,47.44,40,46.47Zm4.45.58c0,1.22,0,2.45,0,3.67a1,1,0,0,0,1.49,1,1.1,1.1,0,0,0,.6-1.08V47.54c0-1.35,0-2.71,0-4.06a1,1,0,0,0-1-1.13,1,1,0,0,0-1.11,1.11C44.43,44.66,44.44,45.85,44.44,47.05Z"/><path class="cls-4" d="M49.87,46.43v4.23a1.08,1.08,0,0,1-.7,1.12,1,1,0,0,1-1.39-1c0-.68,0-1.36,0-2,0-1.74,0-3.49,0-5.23,0-.75.48-1.24,1.18-1.11a1.39,1.39,0,0,1,.77.52C50.89,44.43,52,46,53.16,47.54c0,.06.1.12.2.24V43.36a1,1,0,0,1,1-1,1,1,0,0,1,1,1c0,2.49,0,5,0,7.47a1,1,0,0,1-.7,1,1,1,0,0,1-1.16-.36c-.73-1-1.44-2-2.16-3Z"/><path class="cls-4" d="M59.44,51.86H57.87c-.87,0-1.28-.4-1.29-1.29s0-1.64,0-2.47c0-1.47,0-3,0-4.43a2.23,2.23,0,0,1,.14-.77.82.82,0,0,1,.72-.54c1.35,0,2.71,0,4.06,0a.93.93,0,0,1,.85.9,1,1,0,0,1-.62,1,1.2,1.2,0,0,1-.46.07H59c-.26,0-.38.07-.36.35s0,.66,0,1,.1.36.36.35c.75,0,1.5,0,2.25,0a1,1,0,0,1,1.09.94,1,1,0,0,1-.93,1.09,22.46,22.46,0,0,1-2.32,0c-.34,0-.49.08-.46.45a3.22,3.22,0,0,1,0,.76c0,.35.12.43.44.42.7,0,1.41,0,2.11,0a1.05,1.05,0,1,1,0,2.1Z"/><path class="cls-4" d="M40,46.47c0,1,0,1.94,0,2.9,0,.31.09.41.39.4.73,0,1.45,0,2.18,0a1,1,0,1,1,.06,2.09q-1.83,0-3.66,0a1,1,0,0,1-1.06-1.11v-7.3a1,1,0,0,1,1-1.08A1,1,0,0,1,40,43.42c0,.48,0,1,0,1.45Z"/><path class="cls-4" d="M44.44,47.05c0-1.2,0-2.39,0-3.59a1,1,0,0,1,1.11-1.11,1,1,0,0,1,1,1.13c0,1.35,0,2.71,0,4.06v3.12a1.1,1.1,0,0,1-.6,1.08,1,1,0,0,1-1.49-1C44.43,49.5,44.44,48.27,44.44,47.05Z"/></g></svg>