<svg id="圖層_1" data-name="圖層 1" xmlns="http://www.w3.org/2000/svg" viewBox="0 0 70 70"><defs><style>.cls-1{fill:#f6e7ad;}.cls-2{fill:#c88052;}.cls-3{fill:#7c6556;}.cls-4{fill:#5b483e;}.cls-5{fill:#e0f7ff;}</style></defs><path class="cls-1" d="M38.6,54.15A5.86,5.86,0,1,0,32.74,60a5.84,5.84,0,0,0,5.86-5.85"/><path class="cls-2" d="M32.74,48.31a5.64,5.64,0,0,0-1.7.25,5.85,5.85,0,0,1,0,11.19,6,6,0,0,0,1.7.25,5.85,5.85,0,1,0,0-11.69"/><path class="cls-1" d="M33.43,20A3.47,3.47,0,1,1,36.15,16,3.46,3.46,0,0,1,33.43,20"/><path class="cls-2" d="M36.15,16a3.47,3.47,0,0,0-4.09-2.72,2.73,2.73,0,0,0-.51.14,3.47,3.47,0,0,1,0,6.52A3.48,3.48,0,0,0,36.15,16"/><path class="cls-1" d="M47.25,53.17h-29a4.69,4.69,0,0,1-4.7-4.69,4.76,4.76,0,0,1,1.76-3.69l.94-.75a9.16,9.16,0,0,0,3.41-7.12V32A13.2,13.2,0,0,1,46,32v5a9.13,9.13,0,0,0,3.29,7l.91.75A4.76,4.76,0,0,1,52,48.44v0a4.7,4.7,0,0,1-4.7,4.69"/><path class="cls-2" d="M50.24,44.79,49.33,44A9.13,9.13,0,0,1,46,37V32A13.22,13.22,0,0,0,29.12,19.35,13.17,13.17,0,0,1,38.6,32v5a9.16,9.16,0,0,0,3.29,7l.91.75a4.76,4.76,0,0,1,1.71,3.65v0a4.69,4.69,0,0,1-4.7,4.69h7.44A4.7,4.7,0,0,0,52,48.48v0a4.76,4.76,0,0,0-1.71-3.65"/><path class="cls-3" d="M56.46,21.31a11.33,11.33,0,1,0-11.32,11.3,11.31,11.31,0,0,0,11.32-11.3"/><path class="cls-4" d="M48.18,10.41a11.32,11.32,0,0,1-9.59,20.12,11.31,11.31,0,1,0,9.59-20.12"/><path class="cls-5" d="M45.14,26.59a.79.79,0,0,1-.79-.79V18.18l-.3.27a.78.78,0,0,1-1.11-.05A.77.77,0,0,1,43,17.29l1.62-1.48a.79.79,0,0,1,1.32.59v9.4a.79.79,0,0,1-.79.79"/></svg>