<svg id="圖層_1" data-name="圖層 1" xmlns="http://www.w3.org/2000/svg" viewBox="0 0 82 82"><defs><style>.cls-1{fill:#f3e7cf;}.cls-2{fill:#fff;}.cls-3{fill:#7c6556;}.cls-4{fill:#81d8ff;}.cls-5{fill:#cad3dd;}.cls-6{fill:#efefef;}.cls-7{fill:#c88052;}.cls-8{fill:#334a5e;}.cls-9{fill:#40596b;}.cls-10{fill:#a9b0b7;}</style></defs><rect class="cls-1" x="1" y="1" width="80" height="80" rx="12"/><circle class="cls-2" cx="41" cy="41" r="32.33"/><path class="cls-3" d="M60.25,31.27H49V51.71H67.46v-9.2L65.3,35.06a5.25,5.25,0,0,0-5-3.79"/><path class="cls-4" d="M64.76,42.42l-1.93-6.65a2.7,2.7,0,0,0-2.58-1.94H51.54v8.59Z"/><polygon class="cls-5" points="64.76 42.41 51.53 42.41 51.53 33.83 64.76 42.41"/><path class="cls-6" d="M64.76,42.42l-1.93-6.65a2.7,2.7,0,0,0-2.58-1.94H51.54Z"/><path class="cls-7" d="M17.09,21H45.56A3.42,3.42,0,0,1,49,24.42V51.71H13.68V24.42A3.42,3.42,0,0,1,17.09,21"/><polygon class="cls-6" points="36.81 21.01 36.81 30.03 35.49 28.71 34.1 30.09 32.72 28.71 31.34 30.09 29.95 28.71 28.55 30.09 27.17 28.71 25.83 30.05 25.83 21.01 36.81 21.01"/><path class="cls-8" d="M68.32,51.71v3.86H13.68V51.71h5.71a7.83,7.83,0,0,1,13.66,0H51.39a7.82,7.82,0,0,1,13.65,0Z"/><path class="cls-9" d="M63.66,55.55a5.45,5.45,0,1,1-5.45-5.46,5.45,5.45,0,0,1,5.45,5.46"/><path class="cls-10" d="M60.4,55.55a2.19,2.19,0,1,1-2.19-2.19,2.19,2.19,0,0,1,2.19,2.19"/><path class="cls-9" d="M31.67,55.55a5.46,5.46,0,1,1-5.46-5.46,5.46,5.46,0,0,1,5.46,5.46"/><path class="cls-10" d="M28.4,55.55a2.19,2.19,0,1,1-2.19-2.19,2.19,2.19,0,0,1,2.19,2.19"/></svg>