<svg id="圖層_1" data-name="圖層 1" xmlns="http://www.w3.org/2000/svg" viewBox="0 0 82 82"><defs><style>.cls-1{fill:#f3e7cf;}.cls-2{fill:#fff;}.cls-3{fill:#5b483e;}.cls-4{fill:#f1e5cd;}.cls-5{fill:#7c6556;}</style></defs><rect class="cls-1" x="1" y="1" width="80" height="80" rx="12"/><circle class="cls-2" cx="41" cy="41" r="32.33"/><rect class="cls-2" x="20.97" y="22.76" width="39.88" height="12.93"/><path class="cls-3" d="M19,63H63V19H19Zm19.8-3.67H32.2v-4.4h6.6Zm0-8.06H32.2v-4.4h6.6Zm0-8.07H32.2V38.8h6.6ZM49.07,59.33h-6.6v-4.4h6.6Zm0-8.06h-6.6v-4.4h6.6Zm0-8.07h-6.6V38.8h6.6Zm11,16.13H52.73V46.87h7.34Zm0-16.13H52.73V38.8h7.34ZM21.93,22.67H60.07V35.13H21.93Zm0,16.13h6.6v4.4h-6.6Zm0,8.07h6.6v4.4h-6.6Zm0,8.06h6.6v4.4h-6.6Z"/><rect class="cls-4" x="21.93" y="46.87" width="6.6" height="4.4"/><rect class="cls-4" x="42.47" y="46.87" width="6.6" height="4.4"/><rect class="cls-4" x="32.2" y="46.87" width="6.6" height="4.4"/><rect class="cls-4" x="21.93" y="54.93" width="6.6" height="4.4"/><rect class="cls-4" x="42.47" y="54.93" width="6.6" height="4.4"/><rect class="cls-4" x="32.2" y="54.93" width="6.6" height="4.4"/><path class="cls-3" d="M28.8,25.65a.75.75,0,0,0-.81.19l-1.4,1.54a.72.72,0,0,0-.17.73.73.73,0,0,0,1.25.26l.13-.14v3.24a.74.74,0,0,0,1.47,0V26.33a.74.74,0,0,0-.47-.68"/><path class="cls-3" d="M43.69,25.6a2.11,2.11,0,0,0-2.2,2,.74.74,0,0,0,1.47,0c0-.3.33-.55.73-.55s.73.25.73.55-.33.55-.73.55a.73.73,0,1,0,0,1.46c.4,0,.73.25.73.55s-.33.55-.73.55-.73-.25-.73-.55a.74.74,0,0,0-1.47,0,2.21,2.21,0,0,0,4.4,0,1.91,1.91,0,0,0-.5-1.28,1.91,1.91,0,0,0,.5-1.28,2.11,2.11,0,0,0-2.2-2"/><path class="cls-3" d="M36.85,30.73h-1.1a9.13,9.13,0,0,0,1.52-1.81,2.25,2.25,0,0,0,0-2.26,2.09,2.09,0,0,0-1.85-1.06,2.26,2.26,0,0,0-2.25,2.27.74.74,0,1,0,1.47,0,.78.78,0,0,1,.78-.8.63.63,0,0,1,.58.32.8.8,0,0,1,0,.79,9.66,9.66,0,0,1-1.82,2l-.79.76a.74.74,0,0,0-.16.8.75.75,0,0,0,.68.45h2.94a.74.74,0,0,0,0-1.47"/><path class="cls-3" d="M54.93,29.27H54.2V26.33a.73.73,0,0,0-.49-.69.75.75,0,0,0-.82.23L50,29.54a.73.73,0,0,0,.57,1.19h2.2v.74a.74.74,0,0,0,1.47,0v-.74h.73a.73.73,0,1,0,0-1.46m-2.2,0h-.67l.67-.85Z"/><rect class="cls-5" x="21.53" y="38.46" width="7.36" height="5.07" rx="0.99"/><rect class="cls-5" x="31.82" y="38.46" width="7.36" height="5.07" rx="0.99"/><rect class="cls-5" x="42.09" y="38.46" width="7.36" height="5.07" rx="0.99"/><rect class="cls-5" x="21.53" y="46.53" width="7.36" height="5.07" rx="0.99"/><rect class="cls-5" x="31.82" y="46.53" width="7.36" height="5.07" rx="0.99"/><rect class="cls-5" x="42.09" y="46.53" width="7.36" height="5.07" rx="0.99"/><rect class="cls-5" x="21.53" y="54.6" width="7.36" height="5.07" rx="0.99"/><rect class="cls-5" x="31.82" y="54.6" width="7.36" height="5.07" rx="0.99"/><rect class="cls-5" x="42.09" y="54.6" width="7.36" height="5.07" rx="0.99"/><rect class="cls-5" x="52.52" y="38.46" width="7.76" height="5.07" rx="0.99"/><rect class="cls-5" x="52.52" y="46.53" width="7.76" height="13.14" rx="0.99"/></svg>