<svg id="圖層_1" data-name="圖層 1" xmlns="http://www.w3.org/2000/svg" viewBox="0 0 82 82"><defs><style>.cls-1{fill:#f3e7cf;}.cls-2{fill:#fff;}.cls-3{fill:#c88052;}.cls-4{fill:#a26a43;}.cls-5{fill:#7c6556;}.cls-6{fill:#5b483e;}</style></defs><rect class="cls-1" x="1" y="1.51" width="80" height="78.97" rx="12"/><ellipse class="cls-2" cx="41" cy="41" rx="32.33" ry="31.92"/><polygon class="cls-3" points="60.54 40.39 60.54 64.75 45.5 64.75 45.5 49.98 37.16 49.98 37.16 64.75 21.46 64.75 21.46 40.39 41 25.36 60.54 40.39"/><path class="cls-4" d="M61.36,32.91V22.61H53.13v4L41,17.25,12.59,39.1l5.95,7.74L41,29.57,63.46,46.84l5.95-7.74Z"/><polygon class="cls-5" points="60.54 40.39 60.54 64.75 45.5 64.75 45.5 49.98 41 49.98 41 25.36 60.54 40.39"/><polygon class="cls-6" points="69.41 39.1 63.46 46.84 41 29.57 41 17.25 53.13 26.58 53.13 22.61 61.36 22.61 61.36 32.91 69.41 39.1"/></svg>