<svg id="圖層_1" data-name="圖層 1" xmlns="http://www.w3.org/2000/svg" viewBox="0 0 82 82"><defs><style>.cls-1{fill:#f3e7cf;}.cls-2,.cls-4{fill:#fff;}.cls-3{fill:#7c6556;}.cls-4{font-size:9.35px;font-family:MicrosoftJhengHeiBold, Microsoft JhengHei;letter-spacing:0.05em;}.cls-5{fill:#5b483e;}.cls-6{fill:#f7e1d5;}.cls-7{fill:#cc946a;}</style></defs><rect class="cls-1" x="1" y="1" width="80" height="80" rx="12"/><circle class="cls-2" cx="41" cy="41" r="32.33"/><rect class="cls-3" x="21.76" y="19.78" width="17.36" height="17.36" rx="3.17"/><text class="cls-4" transform="translate(26.84 31.41)">A</text><rect class="cls-5" x="42.88" y="19.78" width="17.36" height="17.36" rx="3.2"/><text class="cls-4" transform="translate(48.31 31.41)">B</text><path class="cls-6" d="M53.5,45.85a1.34,1.34,0,0,0-1.33,1.33v2.53a1.56,1.56,0,0,1-3.11,0v-4a1.33,1.33,0,0,0-2.65,0v2.91a1.56,1.56,0,0,1-3.11,0V44.48a1.33,1.33,0,1,0-2.65,0v4a1.56,1.56,0,1,1-3.11,0V33.85a1.33,1.33,0,0,0-2.65,0V58.58a1.55,1.55,0,0,1-.52,1.16,1.53,1.53,0,0,1-1.22.38H33a1.58,1.58,0,0,1-1.32-1.19l-1.77-7.6a1.32,1.32,0,0,0-.6-.82,1.67,1.67,0,0,0-1-.19l-.35,0a.93.93,0,0,0-.66.28.83.83,0,0,0-.1.71l2.06,8.81s0,.07,0,.11c.81,5.21,4.51,9.51,5.76,10.85H51a25.72,25.72,0,0,0,3.78-13.42V47.18A1.33,1.33,0,0,0,53.5,45.85Z"/><path class="cls-7" d="M53.5,42.74a4.5,4.5,0,0,0-2.07.51,4.43,4.43,0,0,0-3.69-2,4.49,4.49,0,0,0-2.19.57A4.45,4.45,0,0,0,42,40a4.51,4.51,0,0,0-1.33.2V33.85a4.44,4.44,0,0,0-8.87,0V48.5a4.09,4.09,0,0,0-.8-.64,4.4,4.4,0,0,0-3.18-.59,3.87,3.87,0,0,0-2.93,1.43,3.94,3.94,0,0,0-.69,3.35l2.05,8.75c1.16,7.3,6.86,12.76,7.1,13a1.58,1.58,0,0,0,1.07.43H51.89a1.55,1.55,0,0,0,1.3-.7,28.75,28.75,0,0,0,4.74-15.83V47.18h0A4.44,4.44,0,0,0,53.5,42.74Zm1.32,14.95A25.72,25.72,0,0,1,51,71.11h-16c-1.25-1.34-4.95-5.64-5.76-10.85,0,0,0-.07,0-.11l-2.06-8.81a.83.83,0,0,1,.1-.71.93.93,0,0,1,.66-.28l.35,0a1.67,1.67,0,0,1,1,.19,1.32,1.32,0,0,1,.6.82l1.77,7.6A1.58,1.58,0,0,0,33,60.11h.13a1.53,1.53,0,0,0,1.22-.38,1.55,1.55,0,0,0,.52-1.16V33.85a1.33,1.33,0,0,1,2.65,0V48.44a1.56,1.56,0,1,0,3.11,0v-4a1.33,1.33,0,1,1,2.65,0v4.14a1.56,1.56,0,0,0,3.11,0V45.71a1.33,1.33,0,0,1,2.65,0v4a1.56,1.56,0,0,0,3.11,0V47.18a1.33,1.33,0,1,1,2.65,0Z"/></svg>