<svg id="圖層_1" data-name="圖層 1" xmlns="http://www.w3.org/2000/svg" viewBox="0 0 82 82"><defs><style>.cls-1{fill:#f3e7cf;}.cls-2{fill:#fff;}.cls-3{fill:#f6e7ad;}.cls-4{fill:#c88052;}.cls-5{fill:#7c6556;}.cls-6{fill:#5b483e;}.cls-7{fill:#e0f7ff;}</style></defs><rect class="cls-1" x="1" y="1" width="80" height="80" rx="12"/><circle class="cls-2" cx="41" cy="41" r="32.33"/><path class="cls-3" d="M44.6,60.15A5.86,5.86,0,1,0,38.74,66a5.84,5.84,0,0,0,5.86-5.85"/><path class="cls-4" d="M38.74,54.31a5.64,5.64,0,0,0-1.7.25,5.85,5.85,0,0,1,0,11.19,6,6,0,0,0,1.7.25,5.85,5.85,0,1,0,0-11.69"/><path class="cls-3" d="M39.43,26A3.47,3.47,0,1,1,42.15,22,3.46,3.46,0,0,1,39.43,26"/><path class="cls-4" d="M42.15,22a3.47,3.47,0,0,0-4.09-2.72,2.73,2.73,0,0,0-.51.14,3.47,3.47,0,0,1,0,6.52A3.48,3.48,0,0,0,42.15,22"/><path class="cls-3" d="M53.25,59.17h-29a4.69,4.69,0,0,1-4.7-4.69,4.76,4.76,0,0,1,1.76-3.69l.94-.75a9.16,9.16,0,0,0,3.41-7.12V38A13.2,13.2,0,0,1,52,38v5a9.13,9.13,0,0,0,3.29,7l.91.75A4.76,4.76,0,0,1,58,54.44v0a4.7,4.7,0,0,1-4.7,4.69"/><path class="cls-4" d="M56.24,50.79,55.33,50A9.13,9.13,0,0,1,52,43V38A13.22,13.22,0,0,0,35.12,25.35,13.17,13.17,0,0,1,44.6,38v5a9.16,9.16,0,0,0,3.29,7l.91.75a4.76,4.76,0,0,1,1.71,3.65v0a4.69,4.69,0,0,1-4.7,4.69h7.44A4.7,4.7,0,0,0,58,54.48v0a4.76,4.76,0,0,0-1.71-3.65"/><path class="cls-5" d="M62.46,27.31a11.33,11.33,0,1,0-11.32,11.3,11.31,11.31,0,0,0,11.32-11.3"/><path class="cls-6" d="M54.18,16.41a11.32,11.32,0,0,1-9.59,20.12,11.31,11.31,0,1,0,9.59-20.12"/><path class="cls-7" d="M51.14,32.59a.79.79,0,0,1-.79-.79V24.18l-.3.27a.78.78,0,0,1-1.11-.05A.77.77,0,0,1,49,23.29l1.62-1.48a.79.79,0,0,1,1.32.59v9.4a.79.79,0,0,1-.79.79"/></svg>